# xmcd
#
# Track frame offsets:
#	150
#	17949
#	37335
#	56703
#	79175
#	97129
#	115163
#
# Disc length: 1793 seconds
#
# Revision: 2
# Processed by: cddbd v1.5.2PL0 Copyright (c) Steve Scherf et al.
# Submitted via: EZCDAudioConverter 8.0.2.1
#
DISCID=6006ff07
DTITLE=Vy Oanh - Fly
DYEAR=2012
DGENRE=Pop
TTITLE0=Vy Oanh - Đồng xanh
TTITLE1=Vy Oanh - Fly
TTITLE2=Vy Oanh - Giấc mơ tình yêu
TTITLE3=Vy Oanh - Giao mùa
TTITLE4=Vy Oanh - Ước chi
TTITLE5=Soundtrack - Đồng xanh
TTITLE6=Soundtrack - Fly
EXTD=
EXTT0=
EXTT1=
EXTT2=
EXTT3=
EXTT4=
EXTT5=
EXTT6=
PLAYORDER=
